<svg width="32" height="32" viewBox="0 0 32 32" fill="none" xmlns="http://www.w3.org/2000/svg">
<path d="M9.33341 18.6667C10.0407 18.6667 10.7189 18.3858 11.219 17.8857C11.7191 17.3856 12.0001 16.7073 12.0001 16.0001C12.0001 15.2928 11.7191 14.6146 11.219 14.1145C10.7189 13.6144 10.0407 13.3334 9.33341 13.3334C8.62617 13.3334 7.94789 13.6144 7.4478 14.1145C6.9477 14.6146 6.66675 15.2928 6.66675 16.0001C6.66675 16.7073 6.9477 17.3856 7.4478 17.8857C7.94789 18.3858 8.62617 18.6667 9.33341 18.6667ZM22.6667 18.6667C23.374 18.6667 24.0523 18.3858 24.5524 17.8857C25.0525 17.3856 25.3334 16.7073 25.3334 16.0001C25.3334 15.2928 25.0525 14.6146 24.5524 14.1145C24.0523 13.6144 23.374 13.3334 22.6667 13.3334C21.9595 13.3334 21.2812 13.6144 20.7811 14.1145C20.281 14.6146 20.0001 15.2928 20.0001 16.0001C20.0001 16.7073 20.281 17.3856 20.7811 17.8857C21.2812 18.3858 21.9595 18.6667 22.6667 18.6667ZM16.0001 12.0001C16.7073 12.0001 17.3856 11.7191 17.8857 11.219C18.3858 10.7189 18.6667 10.0407 18.6667 9.33341C18.6667 8.62617 18.3858 7.94789 17.8857 7.4478C17.3856 6.9477 16.7073 6.66675 16.0001 6.66675C15.2928 6.66675 14.6146 6.9477 14.1145 7.4478C13.6144 7.94789 13.3334 8.62617 13.3334 9.33341C13.3334 10.0407 13.6144 10.7189 14.1145 11.219C14.6146 11.7191 15.2928 12.0001 16.0001 12.0001ZM16.0001 25.3334C16.7073 25.3334 17.3856 25.0525 17.8857 24.5524C18.3858 24.0523 18.6667 23.374 18.6667 22.6667C18.6667 21.9595 18.3858 21.2812 17.8857 20.7811C17.3856 20.281 16.7073 20.0001 16.0001 20.0001C15.2928 20.0001 14.6146 20.281 14.1145 20.7811C13.6144 21.2812 13.3334 21.9595 13.3334 22.6667C13.3334 23.374 13.6144 24.0523 14.1145 24.5524C14.6146 25.0525 15.2928 25.3334 16.0001 25.3334Z" stroke="#141526" stroke-width="2" stroke-linecap="round" stroke-linejoin="round"/>
<path d="M2.66663 16C2.66663 23.364 8.63596 29.3333 16 29.3333C23.364 29.3333 29.3333 23.364 29.3333 16C29.3333 8.63596 23.364 2.66663 16 2.66663C8.63596 2.66663 2.66663 8.63596 2.66663 16ZM2.66663 16V29.3333" stroke="#141526" stroke-width="2" stroke-linecap="round" stroke-linejoin="round"/>
</svg>
